# xmcd CD database file generated by OrangeCD 4.2
#
# Track frame offsets:
#	150
#	16342
#	33750
#	49890
#	64217
#	77935
#	95147
#	116057
#	133070
#	147860
#	163477
#
# Disc length: 2381 seconds
#
# Revision: 0
# Processed by: cddbd v1.4PL0 Copyright (c) Steve Scherf et al.
# Submitted via: OrangeCD 4.2
#
DISCID=a0094b0b
DTITLE=Pittman, Shawn - Burnin' Up
DYEAR=1998
DGENRE=Blues
TTITLE0=Night Stomp
TTITLE1=Times Are Slow
TTITLE2=Dallas City Police
TTITLE3=Gimme Back My Wig
TTITLE4=Trouble Come Around
TTITLE5=You Sure Drive A Hard Bargain
TTITLE6=Burnin' Up
TTITLE7=Watch Out, Baby
TTITLE8=Yes She Does
TTITLE9=She's Evil
TTITLE10=Working Man
EXTD=
EXTT0=
EXTT1=
EXTT2=
EXTT3=
EXTT4=
EXTT5=
EXTT6=
EXTT7=
EXTT8=
EXTT9=
EXTT10=
PLAYORDER=
